<svg xmlns="http://www.w3.org/2000/svg" viewBox="0 0 48 48" role="img" aria-label="PhonePe">
  <rect width="48" height="48" rx="12" fill="#5F259F"/>
  <path fill="#fff" d="M20.412 19.882h5.898v9.384c-.804.402-1.876.536-2.68.536-2.144 0-3.218-1.072-3.218-3.486V19.882zm26.94 9.632c-3.046 12.898-15.97 20.884-28.866 17.838C5.588 44.308-.598 31.382 2.648 18.486 5.894 5.588 18.618-.598 31.514 2.648c12.898 3.046 20.884 15.97 17.838 28.866zm-12.462-11.776a1.774 1.774 0 0 0-1.742-1.742h-3.218l-7.372-8.444c-.67-.804-1.742-1.072-2.814-.804l-2.548.802c-.402.134-.536.67-.268.938l8.042 7.64H12.772c-.402 0-.67.268-.67.67v1.34c0 .938.804 1.742 1.742 1.742h1.876v6.434c0 4.826 2.546 7.64 6.836 7.64 1.34 0 2.412-.134 3.754-.67v4.29c0 1.206.938 2.144 2.144 2.144h1.876a.864.864 0 0 0 .804-.804V19.748h3.084c.402 0 .67-.268.67-.67v-1.34z"/>
</svg>
